<svg transform="rotate(-25)" enable-background="new 0 0 512 512" height="512" viewBox="0 0 512 512" width="512" xmlns="http://www.w3.org/2000/svg">
    <g>
        <path fill="#EB514E" d="m503.675 239.35h-113.411c-8.207-66.86-65.186-118.635-134.264-118.635s-126.057 51.775-134.264 118.635h-113.411c-4.598 0-8.325 3.727-8.325 8.325v16.65c0 4.598 3.727 8.325 8.325 8.325h113.411c8.207 66.86 65.186 118.635 134.264 118.635s126.057-51.775 134.264-118.635h113.411c4.598 0 8.325-3.727 8.325-8.325v-16.65c0-4.598-3.727-8.325-8.325-8.325zm-247.675 118.634c-56.234 0-101.984-45.749-101.984-101.984s45.75-101.984 101.984-101.984 101.984 45.75 101.984 101.984-45.75 101.984-101.984 101.984z" />
        <path fill="#FFF" d="m390.264 239.35c-2.416-19.681-9.061-38.06-18.994-54.191-2.621 18.964-7.598 37.181-14.629 54.333.879 5.376 1.343 10.888 1.343 16.509 0 56.234-45.749 101.984-101.984 101.984-3.587 0-7.13-.189-10.623-.552-16.749 8.04-34.658 14.066-53.387 17.779 19.054 10.252 40.856 16.073 64.01 16.073 69.078 0 126.057-51.775 134.264-118.634h113.411c4.598 0 8.325-3.727 8.325-8.325v-16.65c0-4.598-3.727-8.325-8.325-8.325h-113.411z" />
    </g>
</svg>